<svg width="481" height="115" viewBox="0 0 481 115" fill="none" xmlns="http://www.w3.org/2000/svg">
<g clip-path="url(#clip0_182_2)">
<path fill-rule="evenodd" clip-rule="evenodd" d="M73.7079 0L25.7839 65.0341H52.8352L34.4578 113.988L34.5766 114.067L82.5006 49.033H55.4493L73.7079 0ZM54.1422 2.89128C24.2942 2.89128 0 27.1852 0 57.0335C0 79.611 13.8969 99.0243 33.5864 107.136C34.6628 104.297 35.7627 101.461 36.8342 98.6205C20.5524 91.8522 9.10952 75.8048 9.10952 57.0335C9.10952 32.117 29.2258 12.0008 54.1422 12.0008C56.3228 12.0008 58.4619 12.1784 60.5585 12.4761C62.561 9.76466 64.5748 7.0272 66.5787 4.31712C62.5877 3.37602 58.416 2.89128 54.1422 2.89128ZM74.4604 6.85195C73.4596 9.71528 72.457 12.5585 71.4107 15.407C87.7347 22.1577 99.175 38.2318 99.175 57.0335C99.175 81.9501 79.0586 102.027 54.1422 102.027C51.9713 102.027 49.8533 101.886 47.7656 101.591C45.7707 104.307 43.7765 107.032 41.785 109.75C45.7584 110.682 49.889 111.176 54.1422 111.176C83.9903 111.176 108.284 86.8819 108.284 57.0335C108.284 34.3722 94.2662 14.9094 74.4604 6.85195Z" fill="#00204A"/>
<path d="M169.014 53.3798H192.489V85.7064H183.946V78.3175C178.635 83.7822 171.246 86.4761 163.164 86.4761C147.001 86.4761 133.84 73.6224 133.84 56.8433C133.84 40.1413 147.001 27.2876 163.164 27.2876C171.631 27.2876 179.251 30.2124 184.562 36.1389L178.943 41.7576C174.787 37.1395 169.938 34.3687 163.164 34.3687C150.773 34.3687 142.46 44.2975 142.46 56.8433C142.46 67.6959 150.388 79.395 163.164 79.395C168.629 79.395 173.863 77.7787 177.711 73.4685C180.944 69.851 183.022 65.3868 183.715 60.4608H169.014V53.3798ZM238.362 66.7722V69.6201H208.422C208.422 76.6242 215.118 80.0108 220.044 80.0108C223.661 80.0108 227.664 78.0865 229.819 75.0078L235.284 79.9338C232.744 83.3973 228.587 86.4761 220.044 86.4761C207.729 86.4761 200.186 78.0865 200.186 66.7722C200.186 55.4579 207.498 46.9914 219.274 46.9914C231.05 46.9914 236.438 53.5337 238.054 63.0778C238.285 64.3093 238.362 65.5407 238.362 66.7722ZM208.576 63.0778H230.05C230.05 56.9203 225.124 53.5337 219.274 53.5337C213.425 53.5337 208.576 57.4591 208.576 63.0778ZM264.301 53.5337C257.758 53.5337 252.447 58.9985 252.447 66.7722C252.447 74.469 257.758 80.0108 264.301 80.0108C270.843 80.0108 276.154 74.469 276.154 66.7722C276.154 58.9985 270.843 53.5337 264.301 53.5337ZM264.301 46.9914C275.23 46.9914 284.081 55.4579 284.081 66.7722C284.081 78.0865 275.23 86.4761 264.301 86.4761C253.371 86.4761 244.52 78.0865 244.52 66.7722C244.52 55.4579 253.371 46.9914 264.301 46.9914ZM315.407 48.146L313.714 54.3804C313.175 54.0725 311.482 53.5337 310.097 53.5337C303.554 53.5337 300.476 59.7681 300.476 67.4649V85.7064H292.548V47.6841H300.476V53.0719C301.399 49.5314 305.479 46.9914 310.02 46.9914C312.098 46.9914 314.33 47.5302 315.407 48.146ZM355.893 66.7722V69.6201H325.952C325.952 76.6242 332.648 80.0108 337.574 80.0108C341.192 80.0108 345.194 78.0865 347.349 75.0078L352.814 79.9338C350.274 83.3973 346.118 86.4761 337.574 86.4761C325.259 86.4761 317.716 78.0865 317.716 66.7722C317.716 55.4579 325.028 46.9914 336.805 46.9914C348.581 46.9914 353.968 53.5337 355.585 63.0778C355.816 64.3093 355.893 65.5407 355.893 66.7722ZM326.106 63.0778H347.58C347.58 56.9203 342.654 53.5337 336.805 53.5337C330.955 53.5337 326.106 57.4591 326.106 63.0778ZM379.83 46.9145C390.759 46.9145 395.146 53.5337 395.146 59.1524V85.7064H387.219V81.5501C384.448 85.3215 379.522 86.3991 376.443 86.3991C367.746 86.3991 362.05 81.3192 362.05 74.546C362.05 65.0789 369.131 61.6923 376.443 61.6923H387.219V59.1524C387.219 56.7664 386.295 53.4568 379.83 53.4568C376.212 53.4568 372.903 55.381 370.747 58.3827L365.283 53.4568C368.9 49.4544 374.057 46.9145 379.83 46.9145ZM387.219 73.8533V68.1577H377.521C372.826 68.1577 369.516 70.5437 370.055 74.8539C370.517 78.4714 373.441 79.9338 377.521 79.9338C384.833 79.9338 387.219 76.4702 387.219 73.8533ZM431.244 75.7775L436.709 80.7035C433.092 84.7058 427.935 86.4761 422.162 86.4761C411.233 86.4761 402.381 78.0865 402.381 66.7722C402.381 55.4579 411.233 46.9914 422.162 46.9914C427.935 46.9914 433.092 48.7617 436.709 52.764L431.244 57.69C429.012 54.6882 425.78 53.5337 422.162 53.5337C415.62 53.5337 410.309 58.9985 410.309 66.7722C410.309 74.469 415.62 80.0108 422.162 80.0108C425.78 80.0108 429.012 78.8562 431.244 75.7775ZM480.35 63.7705V85.7064H472.422V64.5402C472.422 56.8434 470.036 53.4568 463.494 53.4568C456.105 53.4568 453.103 58.6136 453.103 65.3098V85.7064H445.176V27.9803H453.103V53.8416C454.181 50.455 458.953 47.3763 463.494 47.0684C473.808 46.2987 480.35 51.3016 480.35 63.7705Z" fill="#00204A"/>
</g>
<defs>
<clipPath id="clip0_182_2">
<rect width="480.35" height="114.067" fill="white"/>
</clipPath>
</defs>
</svg>
